HIERARCHY
ROOT Hips
{
	OFFSET 0.000000 0.000000 0.000000 
	CHANNELS 6 Xposition Yposition Zposition Zrotation Yrotation Xrotation
	JOINT LeftUpLeg
	{
		OFFSET 1.363060 -1.794630 0.839290 
		CHANNELS 3 Zrotation Yrotation Xrotation
		JOINT LeftLeg
		{
			OFFSET 2.448110 -6.726130 0.000000 
			CHANNELS 3 Zrotation Yrotation Xrotation
			JOINT LeftFoot
			{
				OFFSET 2.562200 -7.039590 0.000000 
				CHANNELS 3 Zrotation Yrotation Xrotation
				JOINT LeftToeBase
				{
					OFFSET 0.157640 -0.433110 2.322550 
					CHANNELS 3 Zrotation Yrotation Xrotation
					End Site
					{
						OFFSET 0.000000 0.000000 0.000000 
					}
				}
			}
		}
	}
	JOINT RightUpLeg
	{
		OFFSET -1.305520 -1.794630 0.839290 
		CHANNELS 3 Zrotation Yrotation Xrotation
		JOINT RightLeg
		{
			OFFSET -2.542530 -6.985550 0.000000 
			CHANNELS 3 Zrotation Yrotation Xrotation
			JOINT RightFoot
			{
				OFFSET -2.568260 -7.056230 0.000000 
				CHANNELS 3 Zrotation Yrotation Xrotation
				JOINT RightToeBase
				{
					OFFSET -0.164730 -0.452590 2.363150 
					CHANNELS 3 Zrotation Yrotation Xrotation
					End Site
					{
						OFFSET 0.000000 0.000000 0.000000 
					}
				}
			}
		}
	}
	JOINT Spine
	{
		OFFSET 0.028270 2.035590 -0.193380 
		CHANNELS 3 Zrotation Yrotation Xrotation
		JOINT Spine1
		{
			OFFSET 0.056720 2.048850 -0.042750 
			CHANNELS 3 Zrotation Yrotation Xrotation
			JOINT Neck1
			{
				OFFSET -0.054170 1.746240 0.172020 
				CHANNELS 3 Zrotation Yrotation Xrotation
				JOINT Head
				{
					OFFSET 0.104070 1.761360 -0.123970 
					CHANNELS 3 Zrotation Yrotation Xrotation
					End Site
					{
						OFFSET 0.000000 0.000000 0.000000 
					}
				}
			}
			JOINT LeftArm
			{
				OFFSET 3.362410 1.200890 -0.311210 
				CHANNELS 3 Zrotation Yrotation Xrotation
				JOINT LeftForeArm
				{
					OFFSET 4.983000 -0.000000 -0.000000 
					CHANNELS 3 Zrotation Yrotation Xrotation
					JOINT LeftHand
					{
						OFFSET 3.483560 -0.000000 -0.000000 
						CHANNELS 3 Zrotation Yrotation Xrotation
						JOINT LeftHandIndex1
						{
							OFFSET 0.715260 -0.000000 -0.000000 
							CHANNELS 3 Zrotation Yrotation Xrotation
							End Site
							{
								OFFSET 0.000000 0.000000 0.000000 
							}
						}
					}
				}
			}
			JOINT RightArm
			{
				OFFSET -3.136600 1.374050 -0.404650 
				CHANNELS 3 Zrotation Yrotation Xrotation
				JOINT RightForeArm
				{
					OFFSET -5.241900 -0.000000 -0.000000 
					CHANNELS 3 Zrotation Yrotation Xrotation
					JOINT RightHand
					{
						OFFSET -3.444170 -0.000000 -0.000000 
						CHANNELS 3 Zrotation Yrotation Xrotation
						JOINT RightHandIndex1
						{
							OFFSET -0.622530 -0.000000 -0.000000 
							CHANNELS 3 Zrotation Yrotation Xrotation
							End Site
							{
								OFFSET 0.000000 0.000000 0.000000 
							}
						}
					}
				}
			}
		}
	}
}
MOTION
Frames: 7
Frame Time: 0.041667
4.987160 17.759395 4.732064 9.817498 -85.143622 -4.976711 -16.153259 -2.837694 9.425497 -0.671150 6.210704 16.447256 2.754050 -9.846374 4.758593 0.156400 -2.547900 -7.022500 13.444990 3.230662 -50.093698 -8.663652 -17.362661 52.236500 0.712716 -20.402104 29.077366 -1.151400 -6.813200 19.163100 1.864491 -7.990886 -5.599910 8.177021 -4.273353 -3.025473 6.919674 -2.840502 7.050737 2.690400 -1.112200 7.851400 -87.571861 -13.627220 49.852529 55.357031 -59.178119 -25.094716 -0.463180 1.595759 0.401915 -7.125000 0.000000 0.000000 81.323961 -26.033659 17.030824 -19.853283 36.544650 -8.252948 -0.202366 1.114097 1.092616 7.125000 0.000000 0.000000 
4.781250 17.729761 4.704569 7.142784 -84.976277 -1.899759 -15.661642 -2.783282 9.343005 -0.613586 6.389340 17.027423 2.808299 -10.206903 5.396384 0.197900 -2.864400 -7.901600 13.936476 2.897432 -47.744206 -7.841497 -16.908900 50.204686 0.956117 -18.432023 26.479585 -0.743300 -5.507300 15.361200 1.891054 -7.961504 -5.628577 8.148411 -4.277430 -2.846257 6.801732 -2.819669 7.095555 2.650700 -1.114500 7.853200 -87.738359 -12.311023 49.964299 53.726984 -58.738173 -23.995405 -0.461810 1.602167 0.606233 -7.125000 0.000000 0.000000 81.934018 -25.316243 17.907950 -20.905045 37.547553 -8.856782 -0.216538 1.104475 0.240208 7.125000 0.000000 0.000000 
4.571674 17.702571 4.675749 3.933060 -84.842731 1.722503 -15.087036 -2.727814 9.077727 -0.526106 6.662975 17.889663 2.865502 -10.600570 6.229168 0.250700 -3.221900 -8.897200 14.510267 2.628052 -45.517977 -7.028037 -16.447473 48.324705 1.123835 -15.867667 23.174435 -0.452700 -4.316300 11.968300 1.922276 -7.903996 -5.657764 8.119712 -4.267460 -2.657908 6.660309 -2.788299 7.157281 2.601800 -1.113700 7.866600 -87.904319 -10.951815 50.053464 51.914309 -58.190144 -22.788887 -0.452309 1.607366 0.845135 -7.125000 0.000000 0.000000 82.520435 -24.534652 18.924180 -22.029242 38.580123 -9.518273 -0.231388 1.091593 -0.678184 7.125000 0.000000 0.000000 
4.361589 17.678844 4.646319 0.002847 -84.754540 6.057915 -14.419279 -2.662206 8.591263 -0.399783 7.045314 19.081363 2.925972 -11.034245 7.329168 0.321600 -3.645100 -10.080400 15.196229 2.400991 -43.467477 -6.256201 -15.984524 46.533831 1.176213 -13.179827 19.553643 -0.315900 -3.613000 9.990400 1.959283 -7.813974 -5.689456 8.097859 -4.239508 -2.488075 6.497699 -2.741688 7.234580 2.546000 -1.107500 7.893400 -88.084476 -9.536927 50.068097 49.966669 -57.535311 -21.510684 -0.437223 1.610187 1.140380 -7.125000 0.000000 0.000000 83.063495 -23.673558 20.105975 -23.230325 39.638256 -10.241716 -0.247735 1.075269 -1.633156 7.125000 0.000000 0.000000 
4.153744 17.659801 4.617194 -4.941137 -84.752068 11.373224 -13.660914 -2.551081 7.859551 -0.225086 7.540745 20.626869 2.986359 -11.487246 8.789082 0.414500 -4.132500 -11.449700 16.017688 2.208745 -41.619577 -5.555793 -15.526339 44.785753 1.142725 -10.853009 16.040700 -0.308800 -3.572400 9.876600 1.995988 -7.663775 -5.723032 8.066796 -4.177678 -2.367169 6.336114 -2.675782 7.311200 2.495300 -1.093100 7.923300 -88.248558 -8.111506 50.046118 47.846557 -56.740411 -20.141344 -0.416217 1.611351 1.433227 -7.125000 0.000000 0.000000 83.571422 -22.727943 21.452126 -24.512009 40.717470 -11.031605 -0.265088 1.055275 -2.562906 7.125000 0.000000 0.000000 
3.950787 17.646562 4.588986 -11.537677 -84.845092 18.277657 -12.808841 -2.394211 6.884762 0.005170 8.145261 22.524755 3.040486 -11.887178 10.745792 0.519400 -4.618800 -12.824500 16.989391 2.041900 -39.981848 -4.942177 -15.076693 43.064136 1.096237 -9.263983 13.078580 -0.430100 -4.208600 11.664200 2.032650 -7.445891 -5.752100 8.020229 -4.076745 -2.290630 6.166837 -2.593597 7.379708 2.443600 -1.071700 7.956200 -88.413881 -6.678975 49.898732 45.618804 -55.814557 -18.729152 -0.394421 1.608818 1.771549 -7.125000 0.000000 0.000000 84.032143 -21.662138 22.999236 -25.882358 41.816107 -11.893712 -0.281485 1.032273 -3.407504 7.125000 0.000000 0.000000 
3.754551 17.639637 4.562305 -20.407197 -85.057152 27.372300 -11.891282 -2.160594 5.658810 0.294541 8.849443 24.741640 3.087731 -12.123169 13.336305 0.620300 -5.040100 -14.023000 18.084748 1.921427 -38.529613 -4.418453 -14.638821 41.432258 1.073678 -8.319933 10.730090 -0.640100 -5.118500 14.246800 2.062845 -7.130072 -5.768431 7.948548 -3.916124 -2.247025 6.009166 -2.489254 7.420250 2.402500 -1.039400 7.983000 -88.576967 -5.263015 49.611793 43.296632 -54.750013 -17.289849 -0.370760 1.603286 2.199328 -7.125000 0.000000 0.000000 84.455887 -20.445414 24.743426 -27.343499 42.928445 -12.830923 -0.296152 1.006883 -4.082230 7.125000 0.000000 0.000000 
